<?xml version="1.0" encoding="utf-8"?>
<!-- Generator: Adobe Illustrator 19.0.0, SVG Export Plug-In . SVG Version: 6.00 Build 0)  -->
<svg version="1.1" id="Layer_1" xmlns="http://www.w3.org/2000/svg" xmlns:xlink="http://www.w3.org/1999/xlink" x="0px" y="0px"
	 viewBox="422 408.6 1440 110.3" style="enable-background:new 422 408.6 1440 110.3;" xml:space="preserve">
<style type="text/css">
	.st0{fill:#FFFFFF;}
</style>
<path class="st0" d="M422,519.9h40c40,0,120,0,200,0s160,0,240,0s160,0,240,0s160,0,240,0s160,0,240,0s160,0,200,0h40v-16.3
	l-40-10.8c-40-11.1-120-32.4-200-38s-160,5.6-240,2.7c-80-2.7-160-19-240-29.8c-80-11.1-160-16.1-240-5.4s-160,38.2-240,54.3
	c-80,16.5-160,21.5-200,24.4l-40,2.7V519.9z"/>
</svg>
